Coordinates
version=1
nRows=26
nColumns=24
inDegrees=yes

Units are S.I. units (second, meters, Newtons, ...)
Angles are in degrees.

endheader
time	pelvis_tilt	pelvis_list	pelvis_rotation	pelvis_tx	pelvis_ty	pelvis_tz	hip_flexion_r	hip_adduction_r	hip_rotation_r	knee_angle_r	ankle_angle_r	subtalar_angle_r	mtp_angle_r	hip_flexion_l	hip_adduction_l	hip_rotation_l	knee_angle_l	ankle_angle_l	subtalar_angle_l	mtp_angle_l	lumbar_extension	lumbar_bending	lumbar_rotation
      1.02900000	      0.60096022	     -3.02597043	     -3.56335209	     -0.18758241	      0.98157007	      0.33104041	    -15.16711775	      6.73447139	     -0.71176858	     -8.21381920	     13.96802531	     -7.45468188	     -2.46628524	     21.98067447	     -2.22950424	     -4.17704669	      0.06839427	     -0.57092896	     -2.03901725	      1.49670363	     -3.66843018	      5.90756360	      6.96928178
      1.03316667	      0.57601080	     -2.97332908	     -3.63568102	     -0.18174277	      0.98096812	      0.33077154	    -15.18632466	      6.59866609	     -0.76161796	     -8.81686195	     14.09597432	     -7.25561582	     -2.48564863	     21.92728952	     -2.12770536	     -4.24108693	      0.13625918	     -0.82774422	     -2.33864672	      1.58260887	     -3.62610250	      5.84816549	      7.05833113
      1.03733333	      0.55366964	     -2.87703690	     -3.69206860	     -0.17586739	      0.98047092	      0.33052469	    -15.22521206	      6.43150581	     -0.73750003	     -9.37137639	     14.08479933	     -7.27830187	     -2.49154435	     21.90025224	     -1.98847607	     -4.40575955	      0.05794279	     -1.08391821	     -2.48403267	      1.61374047	     -3.57261273	      5.71243216	      7.04011202
      1.04150000	      0.52986744	     -2.79839385	     -3.74857889	     -0.16996735	      0.98001121	      0.33027051	    -15.23363551	      6.27909093	     -0.72617447	     -9.98524508	     14.07877481	     -7.29193758	     -2.49208518	     21.88091463	     -1.86702058	     -4.54657538	     -0.09858065	     -1.36681795	     -2.70133490	      1.64724766	     -3.50754478	      5.60189036	      7.04403794
      1.04566667	      0.48168969	     -2.71896010	     -3.78176379	     -0.16408677	      0.97953990	      0.32994261	    -15.17361933	      6.12441774	     -0.78064983	    -10.67597110	     14.10679923	     -7.15783174	     -2.47506079	     21.89900279	     -1.73199978	     -4.54481402	     -0.32444914	     -1.74013923	     -3.14699225	      1.75933389	     -3.43710840	      5.52173800	      7.08092365
      1.04983333	      0.44498481	     -2.62668372	     -3.80886436	     -0.15814822	      0.97914739	      0.32963417	    -15.12764730	      5.96337249	     -0.79125071	    -11.36066509	     14.05028803	     -7.15679214	     -2.44729096	     21.92724291	     -1.59024679	     -4.60009460	     -0.64997469	     -2.12817162	     -3.47591843	      1.86765076	     -3.35643448	      5.40021813	      7.06932563
      1.05400000	      0.40974359	     -2.53494217	     -3.82431795	     -0.15219601	      0.97879923	      0.32930935	    -15.06196589	      5.80592797	     -0.80610903	    -12.08131605	     13.95489265	     -7.18332317	     -2.40250388	     21.96569046	     -1.44680997	     -4.61210917	     -1.04352697	     -2.54485266	     -3.85384030	      1.99152698	     -3.27623273	      5.27795086	      7.05694022
      1.05816667	      0.35392506	     -2.44248020	     -3.83503742	     -0.14622423	      0.97847613	      0.32897149	    -14.94321398	      5.64793209	     -0.83483499	    -12.85649077	     13.79882330	     -7.20809593	     -2.30561261	     22.03030636	     -1.30309035	     -4.56959123	     -1.48746339	     -2.97476954	     -4.29382511	      2.20340603	     -3.16975975	      5.15475175	      7.03319629
      1.06233333	      0.29989435	     -2.34387263	     -3.82136871	     -0.14022092	      0.97819267	      0.32859672	    -14.81902594	      5.49294852	     -0.84928250	    -13.64318415	     13.64962018	     -7.28327582	     -2.22132050	     22.12355146	     -1.14878351	     -4.54578132	     -2.02126116	     -3.46941380	     -4.68132973	      2.35164173	     -3.06027255	      5.03266870	      7.00658581
      1.06650000	      0.24514990	     -2.24349529	     -3.80155164	     -0.13420750	      0.97795647	      0.32820687	    -14.66151440	      5.33506238	     -0.88464733	    -14.48378715	     13.42925707	     -7.35956465	     -2.10170962	     22.21454597	     -0.98980844	     -4.46058938	     -2.57937424	     -3.96963442	     -5.13116880	      2.53145181	     -2.95298823	      4.90962786	      6.96479959
      1.07066667	      0.19524071	     -2.13769427	     -3.77008338	     -0.12816310	      0.97777370	      0.32779442	    -14.48735252	      5.17344125	     -0.92599148	    -15.35930854	     13.15912621	     -7.45116904	     -1.95681397	     22.30835716	     -0.82276836	     -4.36442036	     -3.17995982	     -4.47947956	     -5.56060906	      2.71991480	     -2.84593091	      4.77544131	      6.91801798
      1.07483333	      0.13528815	     -2.03843826	     -3.72655853	     -0.12210527	      0.97761780	      0.32735736	    -14.27143317	      5.02119618	     -0.98116439	    -16.28815639	     12.84738721	     -7.55812918	     -1.75826124	     22.41649893	     -0.65808221	     -4.22674132	     -3.80745527	     -4.99887235	     -6.02794414	      2.94457819	     -2.71738413	      4.64535456	      6.85329448
      1.07900000	      0.12658116	     -1.90680251	     -3.66162389	     -0.11598030	      0.97756159	      0.32687561	    -14.09023553	      4.82154589	     -1.12916881	    -17.23382232	     12.38574325	     -7.59762301	      1.51045460	     22.47512823	     -0.45348496	     -4.12866645	     -4.46012631	     -5.55229476	     -6.44869723	      6.04395207	     -2.64322894	      4.47092958	      6.81000176
      1.08316667	      0.09915072	     -1.76880851	     -3.60699429	     -0.10983676	      0.97755146	      0.32643074	    -13.87111625	      4.63153425	     -1.16727950	    -18.21629151	     11.95760347	     -7.81992985	      1.53941270	     22.55967218	     -0.25364962	     -4.06603247	     -5.15184856	     -6.02349839	     -6.71347920	      6.02992996	     -2.54836269	      4.28101876	      6.74926840
      1.08733333	      0.01511303	     -1.68221058	     -3.52598466	     -0.10375564	      0.97748539	      0.32590965	    -13.54206777	      4.50058333	     -1.23688365	    -19.27903035	     11.50264190	     -7.96316927	      1.65221878	     22.70684057	     -0.08729781	     -3.82692129	     -5.85069609	     -6.53526148	     -7.23000254	      6.02500825	     -2.38879493	      4.18815484	      6.64510983
      1.09150000	     -0.03195779	     -1.55507263	     -3.44020282	     -0.09760629	      0.97751869	      0.32537343	    -13.22809247	      4.31679514	     -1.34688066	    -20.37345735	     10.95755936	     -8.08311563	      1.81888747	     22.80518199	      0.12126390	     -3.64183795	     -6.54930087	     -7.00100369	     -7.63811031	      6.03252169	     -2.26138218	      4.02520910	      6.55321807
      1.09566667	     -0.05319083	     -1.41814347	     -3.34704269	     -0.09143755	      0.97761844	      0.32482220	    -12.91258268	      4.11902969	     -1.46902717	    -21.50818084	     10.33879278	     -8.20475200	      2.01727881	     22.86938338	      0.34274494	     -3.45872988	     -7.24778276	     -7.41962037	     -7.98897272	      6.04678467	     -2.16340645	      3.85116885	      6.46124838
      1.09983333	     -0.09057102	     -1.27917745	     -3.24096093	     -0.08525857	      0.97772988	      0.32423413	    -12.54895645	      3.91694268	     -1.60896363	    -22.68539659	      9.67411605	     -8.30832535	      2.31017042	     22.95666166	      0.57251749	     -3.26125017	     -7.96945443	     -7.80577053	     -8.38046985	      6.06791449	     -2.04485635	      3.67664581	      6.35594538
      1.10400000	     -0.07274597	     -1.09787179	     -3.13404342	     -0.07903750	      0.97794066	      0.32360626	    -12.20891041	      3.64432744	     -1.81935008	    -23.90063175	      8.83677676	     -8.44416525	      8.24420450	     22.96483198	      0.85044664	     -3.09579834	     -8.66455502	     -8.12734670	     -8.70293408	      6.44329670	     -1.99506819	      3.45199327	      6.27609758
      1.10816667	     -0.07072475	     -0.95042684	     -3.02057594	     -0.07282964	      0.97818008	      0.32299836	    -11.83537343	      3.42675109	     -1.95348389	    -25.13874723	      8.00202599	     -8.59773601	      8.28055182	     22.98618507	      1.08992696	     -2.91627816	     -9.36334349	     -8.38825629	     -8.95803434	      6.43195907	     -1.91583208	      3.27410675	      6.16940834
      1.11233333	     -0.06269723	     -0.78324421	     -2.90563884	     -0.06661841	      0.97845291	      0.32235957	    -11.42819837	      3.17540317	     -2.11795924	    -26.43432812	      7.10491617	     -8.71120749	      8.34708564	     22.98884453	      1.35460559	     -2.73600146	    -10.04764538	     -8.58898567	     -9.20717400	      6.41948961	     -1.84521244	      3.06567146	      6.07192310
      1.11650000	     -0.07229136	     -0.60995811	     -2.78295368	     -0.06042812	      0.97871581	      0.32167507	    -10.96340362	      2.90984602	     -2.29703088	    -27.78602450	      6.20006502	     -8.77028605	      8.60347050	     23.00323354	      1.63726031	     -2.51150793	    -10.72554639	     -8.75678352	     -9.60206142	      6.37768450	     -1.75703692	      2.85475107	      5.91534509
      1.12066667	     -0.03388228	     -0.43199470	     -2.66000816	     -0.05421053	      0.97908933	      0.32100579	    -10.53652802	      2.63253139	     -2.47811697	    -29.13468977	      5.11326972	     -8.86347835	      8.73942948	     22.94514475	      1.91639687	     -2.35424682	    -11.37211484	     -8.85742590	     -9.76120053	      6.35405462	     -1.71919055	      2.64373413	      5.84566438
      1.12483333	     -0.01077661	     -0.24802834	     -2.53258526	     -0.04801979	      0.97945707	      0.32029749	    -10.05825201	      2.34028549	     -2.66445530	    -30.52990983	      4.00231336	     -8.94479232	      8.91019220	     22.89238472	      2.20951496	     -2.17198526	    -12.00323552	     -8.89780218	     -9.99169087	      6.32159699	     -1.66530252	      2.42719657	      5.74073928
      1.12900000	     -0.00065150	     -0.06661868	     -2.39108733	     -0.04187208	      0.97981624	      0.31956138	     -9.53915365	      2.04891522	     -2.85189910	    -31.95032581	      2.84150159	     -8.98901770	      9.24588924	     22.85584241	      2.50856927	     -1.97317690	    -12.64365729	     -8.91869706	    -10.31026397	      6.25163539	     -1.60969713	      2.20813804	      5.59289795
      1.13316667	      0.10471609	      0.16788337	     -2.25064656	     -0.03567810	      0.98034086	      0.31877344	     -9.10795430	      1.66797135	     -3.09689143	    -33.36831564	      1.53381453	     -9.09321406	     14.87280036	     22.64160446	      2.87878340	     -1.73062147	    -13.14821346	     -8.82939310	    -10.57119789	      4.98880177	     -1.65496888	      1.93113574	      5.45434706
